<svg width="16" height="13" viewBox="0 0 16 13" fill="none" xmlns="http://www.w3.org/2000/svg">
  <ellipse rx="6" ry="6" transform="matrix(0.999954 -0.00957665 -0.00957665 -0.999954 6.05719 6.05707)"
    fill="currentColor" />
  <path d=" M7.89007 3.8931C8.08346 3.69598 8.08042 3.37941 7.8833 3.18603C7.68618 2.99265 7.36961 2.99568 7.17623
    3.1928L7.89007 3.8931ZM5.05721 6.06678L4.70028 5.71663L4.35013 6.07355L4.70705 6.4237L5.05721 6.06678ZM7.23088
    8.89965C7.428 9.09303 7.74457 9.09 7.93796 8.89287C8.13134 8.69575 8.12831 8.37918 7.93118 8.1858L7.23088
    8.89965ZM15.0615 6.47099C15.3377 6.46835 15.5594 6.24235 15.5567 5.96622C15.5541 5.69009 15.3281 5.46839 15.052
    5.47104L15.0615 6.47099ZM7.17623 3.1928L4.70028 5.71663L5.41413 6.41693L7.89007 3.8931L7.17623 3.1928ZM4.70705
    6.4237L7.23088 8.89965L7.93118 8.1858L5.40736 5.70986L4.70705 6.4237ZM5.06199 6.56676L15.0615 6.47099L15.052
    5.47104L5.05242 5.5668L5.06199 6.56676Z" fill="#573353" />
</svg>