<svg width="24" height="24" viewBox="0 0 24 24" fill="none" xmlns="http://www.w3.org/2000/svg">
  <path
    d="M1 11.6667C1 10.1185 1 9.34435 1.09503 8.69561C1.67133 4.76123 4.76123 1.67133 8.69561 1.09503C9.34435 1 10.1185 1 11.6667 1V1C13.2149 1 13.989 1 14.6377 1.09503C18.5721 1.67133 21.662 4.76123 22.2383 8.69561C22.3333 9.34435 22.3333 10.1185 22.3333 11.6667V18.4545C22.3333 20.2225 22.3333 21.1065 21.8132 21.6787C21.7705 21.7256 21.7256 21.7705 21.6787 21.8132C21.1065 22.3333 20.2225 22.3333 18.4545 22.3333H11.6667C10.1185 22.3333 9.34435 22.3333 8.69561 22.2383C4.76123 21.662 1.67133 18.5721 1.09503 14.6377C1 13.989 1 13.2149 1 11.6667V11.6667Z"
    stroke="currentColor" stroke-width="2" />
  <path d="M7.66669 10.3335L15.6667 10.3335" stroke="currentColor" stroke-width="2" stroke-linecap="round"
    stroke-linejoin="round" />
  <path d="M11.6667 15.6667H15.6667" stroke="currentColor" stroke-width="2" stroke-linecap="round"
    stroke-linejoin="round" />
</svg>