<svg width="20" height="20" viewBox="0 0 20 20" fill="none" xmlns="http://www.w3.org/2000/svg">
  <path
    d="M7.04715 3.83378C7.04715 4.20591 7.12352 4.57441 7.27191 4.91821C7.4203 5.26202 7.63779 5.57442 7.91197 5.83756C8.18615 6.1007 8.51165 6.30943 8.86989 6.45184C9.22813 6.59425 9.61208 6.66755 9.99983 6.66755C10.3876 6.66755 10.7715 6.59425 11.1298 6.45184C11.488 6.30943 11.8135 6.1007 12.0877 5.83756C12.3619 5.57442 12.5794 5.26202 12.7278 4.91821C12.8761 4.5744 12.9525 4.20591 12.9525 3.83377C12.9525 3.46164 12.8761 3.09315 12.7278 2.74934C12.5794 2.40553 12.3619 2.09313 12.0877 1.82999C11.8135 1.56685 11.488 1.35812 11.1298 1.21571C10.7715 1.0733 10.3876 1 9.99983 1C9.61208 1 9.22812 1.0733 8.86989 1.21571C8.51165 1.35812 8.18615 1.56685 7.91197 1.82999C7.63779 2.09314 7.42029 2.40553 7.27191 2.74934C7.12352 3.09315 7.04715 3.46164 7.04715 3.83378L7.04715 3.83378Z"
    stroke="currentColor" stroke-width="2" />
  <path
    d="M2.55718 11.2972C2.22137 11.4833 1.92704 11.731 1.691 12.0262C1.45495 12.3215 1.2818 12.6584 1.18144 13.0179C1.08109 13.3774 1.05548 13.7523 1.10609 14.1212C1.15671 14.4902 1.28254 14.8459 1.47642 15.1682C1.67029 15.4905 1.92841 15.773 2.23604 15.9995C2.54366 16.2261 2.89477 16.3922 3.26931 16.4886C3.64385 16.5849 4.03448 16.6094 4.41892 16.5609C4.80335 16.5123 5.17406 16.3915 5.50986 16.2055C5.84566 16.0194 6.13999 15.7717 6.37604 15.4764C6.61209 15.1812 6.78523 14.8442 6.88559 14.4848C6.98595 14.1253 7.01155 13.7504 6.96094 13.3815C6.91033 13.0125 6.78449 12.6567 6.59061 12.3345C6.39674 12.0122 6.13862 11.7297 5.83099 11.5032C5.52337 11.2766 5.17227 11.1104 4.79773 11.0141C4.42319 10.9178 4.03255 10.8932 3.64811 10.9418C3.26368 10.9904 2.89298 11.1112 2.55717 11.2972L2.55718 11.2972Z"
    stroke="currentColor" stroke-width="2" />
  <path
    d="M17.4428 11.2972C17.7786 11.4833 18.073 11.731 18.309 12.0262C18.5451 12.3215 18.7182 12.6584 18.8186 13.0179C18.9189 13.3774 18.9445 13.7523 18.8939 14.1212C18.8433 14.4902 18.7175 14.8459 18.5236 15.1682C18.3297 15.4905 18.0716 15.773 17.764 15.9995C17.4563 16.2261 17.1052 16.3922 16.7307 16.4886C16.3562 16.5849 15.9655 16.6094 15.5811 16.5609C15.1966 16.5123 14.8259 16.3915 14.4901 16.2055C14.1543 16.0194 13.86 15.7717 13.624 15.4764C13.3879 15.1812 13.2148 14.8442 13.1144 14.4848C13.0141 14.1253 12.9885 13.7504 13.0391 13.3815C13.0897 13.0125 13.2155 12.6567 13.4094 12.3345C13.6033 12.0122 13.8614 11.7297 14.169 11.5032C14.4766 11.2766 14.8277 11.1104 15.2023 11.0141C15.5768 10.9178 15.9675 10.8932 16.3519 10.9418C16.7363 10.9904 17.107 11.1112 17.4428 11.2972L17.4428 11.2972Z"
    stroke="currentColor" stroke-width="2" />
  <path fill-rule="evenodd" clip-rule="evenodd"
    d="M7.12726 4.48935C7.07424 4.27521 7.04728 4.05537 7.04728 3.83425C7.04727 3.46211 7.12365 3.09362 7.27203 2.74981C7.35363 2.56076 7.45611 2.38121 7.57743 2.21413C7.25202 2.30316 6.93146 2.41025 6.61738 2.5351C5.54377 2.9619 4.56567 3.58848 3.73991 4.38098C2.91407 5.17356 2.25669 6.11674 1.80738 7.15778C1.35803 8.19893 1.12616 9.31636 1.12616 10.4459C1.12616 11.1397 1.21364 11.8289 1.38525 12.4986C1.47058 12.3326 1.57286 12.1746 1.69087 12.027C1.92691 11.7317 2.22124 11.484 2.55704 11.2979C2.74654 11.1929 2.94715 11.1087 3.15508 11.0466C3.13584 10.8472 3.12616 10.6467 3.12616 10.4459C3.12616 9.59068 3.30161 8.74281 3.64365 7.95031C3.98574 7.1577 4.48831 6.43478 5.12478 5.82395C5.70276 5.26923 6.38081 4.81696 7.12726 4.48935ZM12.8727 4.48933C13.6191 4.81694 14.2972 5.26922 14.8752 5.82394C15.5116 6.43477 16.0142 7.15769 16.3563 7.9503C16.6983 8.7428 16.8738 9.59067 16.8738 10.4459C16.8738 10.6467 16.8641 10.8472 16.8449 11.0466C17.0528 11.1087 17.2534 11.193 17.4429 11.2979C17.7787 11.484 18.073 11.7317 18.309 12.027C18.4271 12.1746 18.5294 12.3326 18.6147 12.4987C18.7863 11.8289 18.8738 11.1397 18.8738 10.4459C18.8738 9.31635 18.6419 8.19892 18.1926 7.15778C17.7433 6.11673 17.0859 5.17356 16.26 4.38097C15.4343 3.58847 14.4562 2.96189 13.3826 2.5351C13.0685 2.41024 12.7479 2.30314 12.4225 2.21411C12.5438 2.3812 12.6463 2.56075 12.7279 2.74981C12.8763 3.09362 12.9526 3.46211 12.9526 3.83425C12.9526 4.05536 12.9257 4.2752 12.8727 4.48933ZM16.1895 16.5778C15.9871 16.5925 15.7833 16.5871 15.5811 16.5616C15.1967 16.513 14.826 16.3923 14.4902 16.2062C14.2924 16.0966 14.109 15.9656 13.9434 15.8161C13.5386 16.0865 13.1031 16.3155 12.6437 16.4981C11.8067 16.8309 10.9082 17.0026 9.99998 17.0026C9.09172 17.0026 8.19325 16.8309 7.35621 16.4981C6.89684 16.3155 6.46129 16.0865 6.05655 15.8161C5.89096 15.9656 5.70754 16.0966 5.50973 16.2062C5.17393 16.3923 4.80322 16.513 4.41879 16.5616C4.21666 16.5871 4.01281 16.5925 3.81049 16.5778C4.62119 17.3386 5.5742 17.942 6.61739 18.3567C7.69094 18.7834 8.84023 19.0026 9.99998 19.0026C11.1597 19.0026 12.309 18.7834 13.3826 18.3567C14.4258 17.942 15.3788 17.3386 16.1895 16.5778Z"
    fill="currentColor" />
</svg>