<svg width="20" height="20" viewBox="0 0 20 20" fill="none" xmlns="http://www.w3.org/2000/svg">
  <path
    d="M11.9225 2.22529H12.9225V2.17542L12.9176 2.12579L11.9225 2.22529ZM11.8291 1.64308L12.7633 1.28616L12.7633 1.28616L11.8291 1.64308ZM11.9225 2.2253H10.9225V2.27518L10.9275 2.32481L11.9225 2.2253ZM12.1015 3.26421L11.2185 3.73362L11.2185 3.73362L12.1015 3.26421ZM13.2769 3.75109L13.5693 4.70737L13.5693 4.70737L13.2769 3.75109ZM14.1381 3.14301L13.5048 2.36905L13.5048 2.36905L14.1381 3.14301ZM14.6158 2.79737L14.2076 1.88446L14.2076 1.88446L14.6158 2.79737ZM15.5209 2.84251L15.0239 3.71028L15.0239 3.71028L15.5209 2.84251ZM15.9618 3.23397L16.7092 2.5696L16.6897 2.54764L16.6689 2.52686L15.9618 3.23397ZM15.9618 3.23397L15.2144 3.89834L15.2339 3.9203L15.2547 3.94108L15.9618 3.23397ZM16.766 4.0381L17.4731 3.33099L17.4731 3.33099L16.766 4.0381ZM17.1574 4.47906L16.2897 4.97602L16.2897 4.97602L17.1574 4.47906ZM17.2026 5.38416L18.1155 5.79231L18.1155 5.79231L17.2026 5.38416ZM16.8569 5.86189L16.083 5.22865L16.083 5.22865L16.8569 5.86189ZM16.2488 6.72311L15.2925 6.43069L15.2925 6.43069L16.2488 6.72311ZM16.7357 7.89849L17.2051 7.01552L17.2051 7.01552L16.7357 7.89849ZM17.7747 8.07747L17.6752 9.0725L17.6752 9.0725L17.7747 8.07747ZM18.3569 8.17086L18.7139 7.23674L18.7139 7.23674L18.3569 8.17086ZM18.965 8.84276L19.93 8.58054L19.93 8.58054L18.965 8.84276ZM18.965 11.1571L18 10.895L18 10.895L18.965 11.1571ZM18.3569 11.8292L18.7137 12.7633L18.7137 12.7633L18.3569 11.8292ZM17.7748 11.9225L17.6753 10.9275L17.6753 10.9275L17.7748 11.9225ZM16.7362 12.1014L16.2669 11.2183L16.2669 11.2183L16.7362 12.1014ZM16.2492 13.277L17.2055 12.9844L17.2055 12.9844L16.2492 13.277ZM16.8571 14.1378L17.6311 13.5046L17.6311 13.5046L16.8571 14.1378ZM17.2026 14.6153L18.1155 14.2071L18.1155 14.2071L17.2026 14.6153ZM17.1575 15.5206L16.2897 15.0236L16.2897 15.0236L17.1575 15.5206ZM16.7661 15.9614L17.4732 16.6685L17.4732 16.6685L16.7661 15.9614ZM15.9619 16.7656L15.2548 16.0585L15.2548 16.0585L15.9619 16.7656ZM15.521 17.1571L15.024 16.2893L15.024 16.2893L15.521 17.1571ZM14.6159 17.2022L15.024 16.2893L15.024 16.2893L14.6159 17.2022ZM14.1381 16.8566L14.7714 16.0826L14.7335 16.0517L14.6928 16.0245L14.1381 16.8566ZM14.1381 16.8566L13.5049 17.6305L13.5427 17.6615L13.5834 17.6886L14.1381 16.8566ZM13.2769 16.2485L13.5694 15.2922L13.5694 15.2922L13.2769 16.2485ZM12.1015 16.7353L12.9845 17.2048L12.9845 17.2048L12.1015 16.7353ZM11.9226 17.7745L12.9176 17.874L12.9176 17.874L11.9226 17.7745ZM11.8291 18.357L10.895 18L10.895 18L11.8291 18.357ZM11.1573 18.965L10.895 18L10.895 18L11.1573 18.965ZM8.84277 18.965L9.10499 18L9.10499 18L8.84277 18.965ZM8.17086 18.3569L9.10499 18L9.10499 18L8.17086 18.3569ZM8.07747 17.7747L7.08243 17.8742L7.08243 17.8742L8.07747 17.7747ZM7.89848 16.7357L7.01552 17.2051L7.01552 17.2051L7.89848 16.7357ZM6.72313 16.2488L7.01552 17.2051L7.01552 17.2051L6.72313 16.2488ZM5.86185 16.857L6.47156 17.6496L6.48347 17.6404L6.49509 17.6309L5.86185 16.857ZM5.86183 16.857L5.25212 16.0644L5.24022 16.0735L5.2286 16.083L5.86183 16.857ZM5.38408 17.2027L5.7922 18.1156L5.7922 18.1156L5.38408 17.2027ZM4.47902 17.1575L4.97596 16.2897L4.97594 16.2897L4.47902 17.1575ZM4.03803 16.766L3.30849 17.45L3.31952 17.4617L3.33092 17.4731L4.03803 16.766ZM4.03802 16.766L4.76755 16.0821L4.75652 16.0703L4.74512 16.0589L4.03802 16.766ZM3.23393 15.9619L2.52682 16.669L2.52682 16.669L3.23393 15.9619ZM2.84244 15.5209L1.97466 16.0179L1.97466 16.0179L2.84244 15.5209ZM2.7973 14.6159L3.71022 15.024L3.71022 15.024L2.7973 14.6159ZM3.14297 14.1381L2.36902 13.5049L2.36902 13.5049L3.14297 14.1381ZM3.75108 13.2769L4.70737 13.5693L4.70737 13.5693L3.75108 13.2769ZM3.26421 12.1015L3.73363 11.2185L3.73363 11.2185L3.26421 12.1015ZM2.22528 11.9225L2.32478 10.9275L2.32478 10.9275L2.22528 11.9225ZM1.64308 11.8291L1.28616 12.7633L1.28616 12.7633L1.64308 11.8291ZM1.03499 11.1572L2 10.895L2 10.895L1.03499 11.1572ZM1.03501 8.84269L0.0700235 8.5804L0.0700234 8.5804L1.03501 8.84269ZM1.64299 8.17089L2 9.10499L2 9.10499L1.64299 8.17089ZM2.2254 8.07746V7.07746H2.17553L2.1259 7.08242L2.2254 8.07746ZM2.22541 8.07746V9.07746H2.27528L2.32491 9.0725L2.22541 8.07746ZM3.26471 7.8984L3.73426 8.78131L3.73426 8.78131L3.26471 7.8984ZM3.7515 6.7232L4.70782 6.43091L4.70782 6.43091L3.7515 6.7232ZM3.14316 5.86163L3.91712 5.2284L3.91712 5.2284L3.14316 5.86163ZM2.79732 5.38364L3.71029 4.97561L3.71029 4.97561L2.79732 5.38364ZM2.84245 4.47877L1.97462 3.98192L1.97461 3.98192L2.84245 4.47877ZM4.47908 2.84209L3.98213 1.97431L3.98213 1.97431L4.47908 2.84209ZM5.38417 2.79695L5.7923 1.88403L5.7923 1.88403L5.38417 2.79695ZM5.86198 3.14268L6.49522 2.36873L6.49522 2.36872L5.86198 3.14268ZM6.72301 3.75071L6.43045 4.70696L6.43045 4.70696L6.72301 3.75071ZM7.8986 3.26376L8.78164 3.73306L8.78164 3.73306L7.8986 3.26376ZM8.07748 2.22518L9.07252 2.32468L9.07748 2.27505V2.22518H8.07748ZM8.07748 2.22517L7.08245 2.12567L7.07748 2.1753V2.22517H8.07748ZM8.17082 1.64316L9.10499 2L9.10499 2L8.17082 1.64316ZM8.84288 1.03496L9.10499 2L9.10499 2L8.84288 1.03496ZM11.1572 1.03499L10.895 2L10.895 2L11.1572 1.03499ZM12.9176 2.12579C12.8934 1.88362 12.8704 1.56645 12.7633 1.28616L10.895 2C10.8823 1.96662 10.8846 1.95609 10.893 2.0128C10.9023 2.07592 10.9113 2.16301 10.9275 2.32479L12.9176 2.12579ZM12.9225 2.2253V2.22529H10.9225V2.2253H12.9225ZM12.9845 2.79481C13.0193 2.86033 13.0088 2.88079 12.9869 2.74111C12.9663 2.60926 12.9476 2.42588 12.9176 2.1258L10.9275 2.32481C10.9552 2.60139 10.9797 2.85051 11.011 3.05046C11.0411 3.24259 11.0912 3.49418 11.2185 3.73362L12.9845 2.79481ZM12.9845 2.7948L12.9845 2.7948L11.2185 3.73362C11.668 4.57911 12.6537 4.9874 13.5693 4.70737L12.9845 2.7948ZM13.5048 2.36905C13.2714 2.56003 13.1285 2.67647 13.0207 2.7551C12.9065 2.83841 12.9135 2.81651 12.9845 2.79481L13.5693 4.70737C13.8287 4.62807 14.042 4.48563 14.1991 4.37104C14.3627 4.25178 14.5562 4.09298 14.7713 3.91697L13.5048 2.36905ZM14.2076 1.88446C13.9337 2.00693 13.6932 2.21495 13.5048 2.36905L14.7713 3.91697C14.8971 3.81402 14.9651 3.75878 15.0163 3.72075C15.0623 3.68658 15.0565 3.69569 15.0239 3.71028L14.2076 1.88446ZM16.0179 1.97475C15.4635 1.65726 14.7908 1.62371 14.2076 1.88446L15.0239 3.71028L15.0239 3.71028L16.0179 1.97475ZM16.6689 2.52686C16.4969 2.35478 16.2782 2.12386 16.0179 1.97475L15.0239 3.71028C14.9929 3.69252 14.9881 3.68288 15.0305 3.72145C15.0777 3.76439 15.1398 3.82611 15.2547 3.94107L16.6689 2.52686ZM16.7092 2.56961L16.7092 2.5696L15.2144 3.89833L15.2144 3.89834L16.7092 2.56961ZM17.4731 3.33099L16.6689 2.52687L15.2547 3.94108L16.0588 4.74521L17.4731 3.33099ZM18.0252 3.98211C17.8761 3.72172 17.6452 3.50309 17.4731 3.33099L16.0588 4.74521C16.1738 4.86018 16.2355 4.92227 16.2785 4.96946C16.3171 5.01186 16.3074 5.00703 16.2897 4.97602L18.0252 3.98211ZM18.1155 5.79231C18.3762 5.20912 18.3427 4.53646 18.0252 3.9821L16.2897 4.97602L16.2897 4.97602L18.1155 5.79231ZM17.6309 6.49513C17.785 6.30676 17.993 6.06624 18.1155 5.79231L16.2897 4.97602C16.3042 4.94339 16.3134 4.93763 16.2792 4.98366C16.2412 5.03489 16.1859 5.10281 16.083 5.22865L17.6309 6.49513ZM17.2051 7.01552C17.1834 7.08649 17.1615 7.09353 17.2448 6.97929C17.3234 6.87146 17.4399 6.72855 17.6309 6.49513L16.083 5.22865C15.9069 5.44379 15.7481 5.63731 15.6289 5.80085C15.5143 5.95799 15.3718 6.17135 15.2925 6.43069L17.2051 7.01552ZM17.2051 7.01552L17.2051 7.01552L15.2925 6.43069C15.0125 7.34634 15.4208 8.33198 16.2662 8.78146L17.2051 7.01552ZM17.8742 7.08243C17.5741 7.05242 17.3907 7.03371 17.2588 7.01306C17.1191 6.99119 17.1396 6.98068 17.2051 7.01552L16.2662 8.78146C16.5057 8.90877 16.7573 8.95891 16.9494 8.98899C17.1494 9.0203 17.3986 9.04484 17.6752 9.0725L17.8742 7.08243ZM18.7139 7.23674C18.4336 7.12962 18.1164 7.10665 17.8742 7.08243L17.6752 9.0725C17.837 9.08868 17.9241 9.09765 17.9872 9.10699C18.0439 9.11537 18.0334 9.11775 18 9.10499L18.7139 7.23674ZM19.93 8.58054C19.7625 7.9641 19.3106 7.46475 18.7139 7.23674L18 9.10499L18 9.10499L19.93 8.58054ZM20 9.43143C20 9.18803 20.0087 8.87013 19.93 8.58054L18 9.10498C17.9906 9.07049 17.994 9.06026 17.9967 9.11752C17.9997 9.18127 18 9.26883 18 9.43143H20ZM20 10.5687V9.43143H18V10.5687H20ZM19.9301 11.4193C20.0087 11.1298 20 10.812 20 10.5687H18C18 10.7312 17.9997 10.8188 17.9967 10.8825C17.994 10.9397 17.9906 10.9295 18 10.895L19.9301 11.4193ZM18.7137 12.7633C19.3106 12.5353 19.7626 12.0359 19.9301 11.4193L18 10.895L18 10.895L18.7137 12.7633ZM17.8743 12.9176C18.1164 12.8933 18.4335 12.8704 18.7137 12.7633L18 10.895C18.0334 10.8823 18.0439 10.8846 17.9872 10.893C17.9241 10.9023 17.837 10.9113 17.6753 10.9275L17.8743 12.9176ZM17.2055 12.9844C17.14 13.0193 17.1195 13.0088 17.2592 12.9869C17.391 12.9663 17.5743 12.9476 17.8743 12.9176L17.6753 10.9275C17.3988 10.9551 17.1497 10.9797 16.9499 11.011C16.7578 11.041 16.5063 11.0911 16.2669 11.2183L17.2055 12.9844ZM17.2055 12.9844L17.2055 12.9844L16.2669 11.2183C15.4212 11.6678 15.0128 12.6538 15.293 13.5696L17.2055 12.9844ZM17.6311 13.5046C17.4402 13.2713 17.3238 13.1284 17.2452 13.0207C17.1619 12.9065 17.1838 12.9135 17.2055 12.9844L15.293 13.5696C15.3723 13.8288 15.5147 14.0421 15.6293 14.1991C15.7485 14.3626 15.9072 14.556 16.0831 14.7711L17.6311 13.5046ZM18.1155 14.2071C17.993 13.9333 17.7851 13.6929 17.6311 13.5046L16.0831 14.7711C16.186 14.8968 16.2413 14.9647 16.2793 15.0159C16.3134 15.062 16.3043 15.0562 16.2897 15.0236L18.1155 14.2071ZM18.0252 16.0177C18.3428 15.4632 18.3764 14.7904 18.1155 14.2071L16.2897 15.0236L16.2897 15.0236L18.0252 16.0177ZM17.4732 16.6685C17.6453 16.4965 17.8761 16.278 18.0252 16.0177L16.2897 15.0236C16.3075 14.9926 16.3171 14.9878 16.2786 15.0301C16.2356 15.0773 16.174 15.1394 16.059 15.2543L17.4732 16.6685ZM16.669 17.4727L17.4732 16.6685L16.059 15.2543L15.2548 16.0585L16.669 17.4727ZM16.669 17.4727L16.669 17.4727L15.2548 16.0585L15.2548 16.0585L16.669 17.4727ZM16.0179 18.0249C16.2783 17.8758 16.4969 17.6448 16.669 17.4727L15.2548 16.0585C15.1398 16.1735 15.0777 16.2352 15.0306 16.2782C14.9882 16.3167 14.993 16.3071 15.024 16.2893L16.0179 18.0249ZM14.2077 18.1151C14.7909 18.3759 15.4636 18.3423 16.0179 18.0249L15.024 16.2893L15.024 16.2893L14.2077 18.1151ZM13.5049 17.6305C13.6933 17.7847 13.9338 17.9927 14.2077 18.1152L15.024 16.2893C15.0566 16.3039 15.0624 16.313 15.0164 16.2789C14.9651 16.2408 14.8972 16.1856 14.7714 16.0826L13.5049 17.6305ZM13.5834 17.6886L13.5834 17.6886L14.6928 16.0245L14.6928 16.0245L13.5834 17.6886ZM12.9845 17.2048C12.9135 17.1831 12.9065 17.1612 13.0207 17.2445C13.1286 17.3231 13.2715 17.4396 13.5049 17.6305L14.7714 16.0826C14.5562 15.9066 14.3627 15.7478 14.1992 15.6285C14.0421 15.5139 13.8287 15.3715 13.5694 15.2922L12.9845 17.2048ZM12.9845 17.2048L12.9845 17.2048L13.5694 15.2922C12.6537 15.0122 11.668 15.4205 11.2186 16.2659L12.9845 17.2048ZM12.9176 17.874C12.9476 17.5738 12.9663 17.3904 12.987 17.2585C13.0088 17.1188 13.0194 17.1392 12.9845 17.2048L11.2186 16.2659C11.0913 16.5054 11.0411 16.757 11.011 16.9492C10.9797 17.1492 10.9552 17.3983 10.9275 17.675L12.9176 17.874ZM12.7632 18.7141C12.8704 18.4337 12.8934 18.1163 12.9176 17.874L10.9275 17.675C10.9113 17.8369 10.9024 17.924 10.893 17.9872C10.8846 18.0439 10.8822 18.0334 10.895 18L12.7632 18.7141ZM11.4196 19.93C12.0359 19.7624 12.5352 19.3106 12.7632 18.7141L10.895 18L10.895 18L11.4196 19.93ZM10.5685 20C10.8119 20 11.13 20.0087 11.4196 19.93L10.895 18C10.9295 17.9906 10.9398 17.994 10.8825 17.9967C10.8187 17.9997 10.7311 18 10.5685 18V20ZM9.43142 20H10.5685V18H9.43142V20ZM8.58055 19.93C8.87013 20.0087 9.18803 20 9.43142 20V18C9.26882 18 9.18127 17.9997 9.11753 17.9967C9.06026 17.994 9.0705 17.9906 9.10499 18L8.58055 19.93ZM7.23673 18.7139C7.46475 19.3106 7.9641 19.7625 8.58055 19.93L9.10499 18L9.10499 18L7.23673 18.7139ZM7.08243 17.8742C7.10665 18.1164 7.12962 18.4336 7.23673 18.7139L9.10499 18C9.11774 18.0334 9.11537 18.0439 9.10699 17.9872C9.09765 17.9241 9.08869 17.837 9.07251 17.6752L7.08243 17.8742ZM7.01552 17.2051C6.98068 17.1396 6.99119 17.1191 7.01306 17.2588C7.03371 17.3907 7.05242 17.5741 7.08243 17.8742L9.07251 17.6752C9.04485 17.3986 9.0203 17.1494 8.98899 16.9494C8.95891 16.7573 8.90876 16.5057 8.78144 16.2662L7.01552 17.2051ZM7.01552 17.2051L7.01552 17.2051L8.78144 16.2662C8.33196 15.4208 7.34636 15.0126 6.43073 15.2925L7.01552 17.2051ZM6.49509 17.6309C6.72853 17.4399 6.87145 17.3235 6.97929 17.2448C7.09354 17.1615 7.0865 17.1834 7.01552 17.2051L6.43073 15.2925C6.17138 15.3718 5.958 15.5143 5.80085 15.6289C5.6373 15.7481 5.44377 15.907 5.22861 16.083L6.49509 17.6309ZM6.47154 17.6496L6.47156 17.6496L5.25214 16.0643L5.25212 16.0644L6.47154 17.6496ZM5.7922 18.1156C6.06616 17.9931 6.30671 17.7851 6.49507 17.6309L5.2286 16.083C5.10275 16.186 5.03482 16.2412 4.98359 16.2793C4.93755 16.3134 4.94332 16.3043 4.97596 16.2897L5.7922 18.1156ZM3.98208 18.0253C4.53641 18.3427 5.20903 18.3763 5.7922 18.1156L4.97596 16.2897L4.97596 16.2897L3.98208 18.0253ZM3.33092 17.4731C3.50302 17.6452 3.72167 17.8762 3.98209 18.0253L4.97594 16.2897C5.00696 16.3075 5.0118 16.3171 4.9694 16.2786C4.9222 16.2356 4.86011 16.1739 4.74513 16.0589L3.33092 17.4731ZM3.30848 17.4499L3.30849 17.45L4.76756 16.0821L4.76755 16.0821L3.30848 17.4499ZM2.52682 16.669L3.33091 17.4731L4.74512 16.0589L3.94103 15.2548L2.52682 16.669ZM1.97466 16.0179C2.12378 16.2783 2.35472 16.4969 2.52682 16.669L3.94103 15.2548C3.82606 15.1398 3.76433 15.0777 3.72139 15.0305C3.68281 14.9881 3.69245 14.993 3.71022 15.024L1.97466 16.0179ZM1.88438 14.2077C1.62365 14.7909 1.6572 15.4635 1.97466 16.0179L3.71022 15.024L3.71022 15.024L1.88438 14.2077ZM2.36902 13.5049C2.21489 13.6932 2.00685 13.9338 1.88438 14.2077L3.71022 15.024C3.69563 15.0566 3.68651 15.0624 3.72068 15.0164C3.75872 14.9651 3.81397 14.8972 3.91693 14.7713L2.36902 13.5049ZM2.79479 12.9845C2.8165 12.9135 2.8384 12.9065 2.75509 13.0207C2.67644 13.1285 2.56 13.2714 2.36902 13.5049L3.91693 14.7713C4.09295 14.5562 4.25176 14.3627 4.37102 14.1992C4.48561 14.042 4.62806 13.8287 4.70737 13.5693L2.79479 12.9845ZM2.79479 12.9845L2.79479 12.9845L4.70737 13.5693C4.98738 12.6537 4.5791 11.668 3.73363 11.2185L2.79479 12.9845ZM2.12578 12.9176C2.42587 12.9476 2.60925 12.9663 2.7411 12.9869C2.88078 13.0088 2.86032 13.0193 2.7948 12.9845L3.73363 11.2185C3.49418 11.0912 3.24259 11.0411 3.05045 11.011C2.85049 10.9797 2.60137 10.9551 2.32478 10.9275L2.12578 12.9176ZM1.28616 12.7633C1.56645 12.8704 1.88362 12.8933 2.12578 12.9176L2.32478 10.9275C2.16301 10.9113 2.07592 10.9023 2.0128 10.893C1.95609 10.8846 1.96662 10.8823 2 10.895L1.28616 12.7633ZM0.0699714 11.4194C0.237473 12.0359 0.689402 12.5353 1.28616 12.7633L2 10.895L2 10.895L0.0699714 11.4194ZM0 10.5686C0 10.812 -0.00870171 11.1299 0.0699715 11.4194L2 10.895C2.00937 10.9295 2.00596 10.9397 2.00326 10.8825C2.00026 10.8187 2 10.7312 2 10.5686H0ZM0 9.43151V10.5686H2V9.43151H0ZM0.0700234 8.5804C-0.00870812 8.87006 0 9.18806 0 9.43151H2C2 9.26887 2.00026 9.18129 2.00327 9.11753C2.00597 9.06025 2.00938 9.07049 2 9.10499L0.0700234 8.5804ZM1.28598 7.23679C0.68937 7.46481 0.237549 7.96407 0.0700235 8.5804L2 9.10499L2 9.10499L1.28598 7.23679ZM2.1259 7.08242C1.88365 7.10665 1.56636 7.12962 1.28598 7.23679L2 9.10499C1.96661 9.11775 1.95608 9.11538 2.0128 9.10699C2.07595 9.09765 2.16307 9.08868 2.32491 9.0725L2.1259 7.08242ZM2.22541 7.07746H2.2254V9.07746H2.22541V7.07746ZM2.79517 7.0155C2.86071 6.98064 2.88119 6.99115 2.74146 7.01303C2.60955 7.03368 2.4261 7.0524 2.1259 7.08242L2.32491 9.0725C2.6016 9.04483 2.85081 9.02028 3.05085 8.98896C3.24306 8.95886 3.49474 8.90869 3.73426 8.78131L2.79517 7.0155ZM2.79517 7.0155L2.79517 7.0155L3.73426 8.78131C4.57947 8.33181 4.98764 7.34641 4.70782 6.43091L2.79517 7.0155ZM2.3692 6.49487C2.56026 6.72839 2.67676 6.87136 2.75544 6.97925C2.83878 7.09354 2.81687 7.0865 2.79517 7.0155L4.70782 6.43091C4.62853 6.17147 4.48603 5.95802 4.37139 5.80082C4.25209 5.63722 4.09322 5.44363 3.91712 5.2284L2.3692 6.49487ZM1.88435 5.79166C2.00685 6.06575 2.215 6.3064 2.3692 6.49487L3.91712 5.2284C3.8141 5.10249 3.75883 5.03452 3.72077 4.98326C3.68658 4.9372 3.6957 4.94297 3.71029 4.97561L1.88435 5.79166ZM1.97461 3.98192C1.65731 4.53616 1.62377 5.20861 1.88435 5.79166L3.71029 4.97561L3.71029 4.97561L1.97461 3.98192ZM2.52701 3.33047C2.35483 3.50265 2.12377 3.72139 1.97462 3.98192L3.71029 4.97561C3.69253 5.00664 3.68288 5.01147 3.72147 4.96905C3.76444 4.92183 3.82619 4.85971 3.94122 4.74469L2.52701 3.33047ZM3.331 2.52648L2.52701 3.33047L3.94122 4.74469L4.74521 3.9407L3.331 2.52648ZM3.98213 1.97431C3.72173 2.12344 3.5031 2.35438 3.331 2.52648L4.74521 3.9407C4.86018 3.82572 4.92228 3.76399 4.96947 3.72105C5.01187 3.68247 5.00705 3.69211 4.97603 3.70987L3.98213 1.97431ZM5.7923 1.88403C5.20912 1.62331 4.53648 1.65686 3.98213 1.97431L4.97603 3.70987L4.97603 3.70987L5.7923 1.88403ZM6.49522 2.36872C6.30682 2.21457 6.06625 2.0065 5.7923 1.88403L4.97603 3.70987C4.94339 3.69528 4.93763 3.68616 4.98368 3.72035C5.03493 3.7584 5.10288 3.81366 5.22875 3.91664L6.49522 2.36872ZM7.01557 2.79446C7.08652 2.81617 7.09356 2.83806 6.97932 2.75475C6.8715 2.67611 6.7286 2.55967 6.49522 2.36873L5.22875 3.91664C5.44386 4.09264 5.63733 4.25141 5.80083 4.37065C5.95791 4.48521 6.17121 4.62764 6.43045 4.70696L7.01557 2.79446ZM7.01557 2.79446L7.01557 2.79446L6.43045 4.70696C7.34627 4.98715 8.33218 4.57877 8.78164 3.73306L7.01557 2.79446ZM7.08245 2.12567C7.05245 2.42566 7.03374 2.60898 7.01311 2.74079C6.99125 2.88042 6.98075 2.85997 7.01557 2.79446L8.78164 3.73306C8.90886 3.49368 8.95898 3.24218 8.98905 3.0501C9.02034 2.85021 9.04487 2.60117 9.07252 2.32468L7.08245 2.12567ZM7.07748 2.22517V2.22518H9.07748V2.22517H7.07748ZM7.23665 1.28633C7.12962 1.56653 7.10665 1.88359 7.08245 2.12567L9.07252 2.32468C9.08869 2.16295 9.09766 2.07589 9.10699 2.0128C9.11537 1.95611 9.11774 1.96663 9.10499 2L7.23665 1.28633ZM8.58076 0.0699248C7.96414 0.237404 7.46466 0.689431 7.23665 1.28633L9.10499 2L9.10499 2L8.58076 0.0699248ZM9.43128 0C9.188 0 8.87023 -0.00869594 8.58076 0.069925L9.10499 2C9.07051 2.00936 9.06028 2.00596 9.11752 2.00326C9.18124 2.00026 9.26875 2 9.43128 2V0ZM10.5686 0H9.43128V2H10.5686V0ZM11.4194 0.0699731C11.1299 -0.00870193 10.812 0 10.5686 0V2C10.7312 2 10.8187 2.00026 10.8825 2.00326C10.9397 2.00596 10.9295 2.00937 10.895 2L11.4194 0.0699731ZM12.7633 1.28616C12.5353 0.689402 12.0359 0.237475 11.4194 0.0699727L10.895 2L10.895 2L12.7633 1.28616ZM12.6 10C12.6 11.4359 11.436 12.6 10 12.6V14.6C12.5405 14.6 14.6 12.5405 14.6 10H12.6ZM10 7.4C11.436 7.4 12.6 8.56406 12.6 10H14.6C14.6 7.45949 12.5405 5.4 10 5.4V7.4ZM7.40002 10C7.40002 8.56406 8.56408 7.4 10 7.4V5.4C7.45951 5.4 5.40002 7.45949 5.40002 10H7.40002ZM10 12.6C8.56408 12.6 7.40002 11.4359 7.40002 10H5.40002C5.40002 12.5405 7.45951 14.6 10 14.6V12.6Z"
    fill="currentColor" />
</svg>