<svg width="26" height="29" viewBox="0 0 26 29" fill="none" xmlns="http://www.w3.org/2000/svg">
  <path
    d="M25 14.5V24C25 25.8856 25 26.8284 24.4142 27.4142C23.8284 28 22.8856 28 21 28H4.75C4.05302 28 3.70453 28 3.41473 27.9424C2.22466 27.7056 1.29436 26.7753 1.05764 25.5853C1 25.2955 1 24.947 1 24.25V24.25C1 23.553 1 23.2045 1.05764 22.9147C1.29436 21.7247 2.22466 20.7944 3.41473 20.5576C3.70453 20.5 4.05302 20.5 4.75 20.5H21C22.8856 20.5 23.8284 20.5 24.4142 19.9142C25 19.3284 25 18.3856 25 16.5V5C25 3.11438 25 2.17157 24.4142 1.58579C23.8284 1 22.8856 1 21 1H5C3.11438 1 2.17157 1 1.58579 1.58579C1 2.17157 1 3.11438 1 5V24.25"
    stroke="currentColor" stroke-width="2" />
  <path d="M8.5 11.5L10.7929 13.7929C11.1834 14.1834 11.8166 14.1834 12.2071 13.7929L17.5 8.5" stroke="currentColor"
    stroke-width="2" stroke-linecap="round" />
</svg>