<svg width="20" height="20" viewBox="0 0 20 20" fill="none" xmlns="http://www.w3.org/2000/svg">
  <path
    d="M10 4.5C10 4.26077 10 4.14115 10.0807 4.06687C10.1615 3.99259 10.2741 4.002 10.4994 4.02082C11.3784 4.09424 12.2326 4.36078 13 4.80385C13.9121 5.33046 14.6695 6.08788 15.1962 7C15.7228 7.91212 16 8.94678 16 10C16 11.0532 15.7228 12.0879 15.1962 13C14.6695 13.9121 13.9121 14.6695 13 15.1962C12.0879 15.7228 11.0532 16 10 16C8.94678 16 7.91211 15.7228 7 15.1962C6.23258 14.7531 5.57467 14.1466 5.07159 13.4221C4.94265 13.2364 4.87817 13.1435 4.90213 13.0365C4.92608 12.9294 5.02968 12.8696 5.23686 12.75L9.75 10.1443C9.87201 10.0739 9.93301 10.0387 9.96651 9.98066C10 9.92265 10 9.85221 10 9.71132V4.5Z"
    fill="currentColor" />
  <circle cx="10" cy="10" r="9" stroke="currentColor" stroke-width="2" />
</svg>