<svg width="19" height="20" viewBox="0 0 19 20" fill="none" xmlns="http://www.w3.org/2000/svg">
  <path
    d="M2.85127 11.9844L2.85127 11.9844L11.5453 3.29036C11.5582 3.27752 11.571 3.2647 11.5838 3.25189C11.8836 2.95196 12.175 2.66049 12.4476 2.45244C12.755 2.21791 13.153 1.99747 13.6667 1.99747C14.1803 1.99747 14.5783 2.21791 14.8857 2.45244C15.1584 2.66048 15.4497 2.95195 15.7495 3.25186C15.7623 3.26468 15.7751 3.27752 15.788 3.29036L16.4596 3.96193C16.4724 3.97477 16.4852 3.98759 16.498 4.0004C16.798 4.3002 17.0894 4.59156 17.2975 4.86423C17.532 5.17163 17.7525 5.56959 17.7525 6.08325C17.7525 6.59692 17.532 6.99487 17.2975 7.30227C17.0894 7.57494 16.798 7.86631 16.498 8.16611C16.4852 8.17892 16.4724 8.19174 16.4596 8.20457L7.76549 16.8986C7.75242 16.9117 7.73902 16.9252 7.72529 16.939C7.57404 17.0912 7.38259 17.2838 7.14082 17.4207L2.85127 11.9844ZM2.85127 11.9844C2.83819 11.9975 2.82471 12.0109 2.8109 12.0246C2.65873 12.1759 2.46612 12.3673 2.32923 12.6091C2.19235 12.8509 2.12728 13.1145 2.07587 13.3228C2.07121 13.3418 2.06665 13.3602 2.06217 13.3781L1.23197 16.6989C1.22917 16.7101 1.22625 16.7218 1.22323 16.7338C1.18641 16.8803 1.1354 17.0832 1.11783 17.2628C1.09762 17.4695 1.09093 17.9214 1.45971 18.2902C1.82849 18.659 2.28045 18.6523 2.48714 18.6321C2.66675 18.6145 2.86966 18.5635 3.01615 18.5267C3.02815 18.5237 3.03978 18.5208 3.05099 18.5179L6.37177 17.6878C6.38972 17.6833 6.40817 17.6787 6.42708 17.674C6.63538 17.6226 6.89905 17.5576 7.14081 17.4207L2.85127 11.9844Z"
    stroke="currentColor" stroke-width="2" />
  <path d="M10.75 4.33333L14.25 2L17.75 5.5L15.4167 9L10.75 4.33333Z" fill="currentColor" />
</svg>