<svg width="10" height="19" viewBox="0 0 10 19" fill="none" xmlns="http://www.w3.org/2000/svg">
  <path
    d="M1.67404 5.57856C1.49542 5.09003 1.40611 4.84576 1.36329 4.65413C0.979051 2.93431 2.15289 1.25529 3.90007 1.02559C4.09475 1 4.35484 1 4.875 1V1C5.39516 1 5.65525 1 5.84993 1.02559C7.59711 1.25529 8.77095 2.93431 8.38671 4.65413C8.34389 4.84576 8.25458 5.09003 8.07596 5.57856L6.51226 9.85536C6.34048 10.3252 6.2546 10.5601 6.08845 10.7201C6.01309 10.7928 5.9268 10.8531 5.83274 10.8989C5.62534 11 5.37523 11 4.875 11V11C4.37477 11 4.12466 11 3.91726 10.8989C3.8232 10.8531 3.73691 10.7928 3.66155 10.7201C3.4954 10.5601 3.40952 10.3252 3.23774 9.85536L1.67404 5.57856Z"
    stroke="currentColor" stroke-width="2" />
  <ellipse cx="4.875" cy="16" rx="2.4375" ry="2" stroke="currentColor" stroke-width="2" />
</svg>