<svg width="20" height="20" viewBox="0 0 20 20" fill="none" xmlns="http://www.w3.org/2000/svg">
  <path
    d="M12.25 1H7.75C4.56802 1 2.97703 1 1.98851 2.12973C1 3.25946 1 5.07774 1 8.71428V11.2857C1 14.9223 1 16.7405 1.98851 17.8703C2.97703 19 4.56802 19 7.75 19H12.25C15.432 19 17.023 19 18.0115 17.8703C19 16.7405 19 14.9223 19 11.2857V8.71429C19 5.07774 19 3.25946 18.0115 2.12973C17.023 1 15.432 1 12.25 1Z"
    stroke="currentColor" stroke-width="2" />
  <path d="M5 5.5H8" stroke="currentColor" stroke-width="2" stroke-linecap="round" />
  <path
    d="M13 12.5V12C13 11.0572 13 10.5858 13.2929 10.2929C13.5858 10 14.0572 10 15 10H17C17.9428 10 18.4142 10 18.7071 10.2929C19 10.5858 19 11.0572 19 12V12.5C19 13.4428 19 13.9142 18.7071 14.2071C18.4142 14.5 17.9428 14.5 17 14.5H15C14.0572 14.5 13.5858 14.5 13.2929 14.2071C13 13.9142 13 13.4428 13 12.5Z"
    stroke="currentColor" stroke-width="2" />
</svg>