<svg width="21" height="20" viewBox="0 0 21 20" fill="none" xmlns="http://www.w3.org/2000/svg">
  <path
    d="M2 10.0002L1.21913 9.37555L0.719375 10.0002L1.21913 10.6249L2 10.0002ZM10.1 11.0002C10.6523 11.0002 11.1 10.5525 11.1 10.0002C11.1 9.44796 10.6523 9.00024 10.1 9.00024V11.0002ZM4.81913 4.87555L1.21913 9.37555L2.78087 10.6249L6.38087 6.12494L4.81913 4.87555ZM1.21913 10.6249L4.81913 15.1249L6.38087 13.8755L2.78087 9.37555L1.21913 10.6249ZM2 11.0002H10.1V9.00024H2V11.0002Z"
    fill="currentColor" />
  <path
    d="M9.67397 16.7985L8.91095 17.4449L9.67397 16.7985ZM18.9391 17.7477L18.2928 16.9847L18.9391 17.7477ZM12.7068 3.22933L13.178 3.15079L12.8492 1.178L12.378 1.25654L12.7068 3.22933ZM19 8.08276V11.9172H21V8.08276H19ZM13.178 16.8492L12.7068 16.7707L12.378 18.7435L12.8492 18.822L13.178 16.8492ZM10.2 6.51874V6.18851H8.20001V6.51874H10.2ZM10.2 13.8115V13.6594H8.20001V13.8115H10.2ZM12.7068 16.7707C11.8833 16.6334 11.3573 16.5439 10.9726 16.4294C10.6147 16.3228 10.501 16.2276 10.437 16.1521L8.91095 17.4449C9.32093 17.9288 9.84322 18.1799 10.402 18.3462C10.934 18.5046 11.6052 18.6147 12.378 18.7435L12.7068 16.7707ZM8.20001 13.8115C8.20001 14.595 8.19819 15.2752 8.26696 15.826C8.33919 16.4044 8.50097 16.9609 8.91095 17.4449L10.437 16.1521C10.373 16.0766 10.2978 15.9487 10.2516 15.5782C10.2018 15.1799 10.2 14.6463 10.2 13.8115H8.20001ZM19 11.9172C19 13.5917 18.9976 14.7403 18.8773 15.5879C18.761 16.4077 18.5567 16.7611 18.2928 16.9847L19.5855 18.5107C20.3825 17.8356 20.7086 16.9176 20.8575 15.8689C21.0024 14.8479 21 13.5306 21 11.9172H19ZM12.8492 18.822C14.4406 19.0872 15.7396 19.3061 16.7706 19.3311C17.8295 19.3566 18.7886 19.1858 19.5855 18.5107L18.2928 16.9847C18.0288 17.2082 17.6467 17.3516 16.8189 17.3316C15.9631 17.311 14.8297 17.1245 13.178 16.8492L12.8492 18.822ZM13.178 3.15079C14.8297 2.87551 15.9631 2.68904 16.8189 2.66836C17.6467 2.64836 18.0288 2.79177 18.2928 3.01534L19.5855 1.4893C18.7886 0.814178 17.8295 0.643364 16.7706 0.668947C15.7396 0.693855 14.4406 0.912771 12.8492 1.178L13.178 3.15079ZM21 8.08276C21 6.46941 21.0024 5.15211 20.8575 4.13109C20.7086 3.08239 20.3825 2.16442 19.5855 1.4893L18.2928 3.01534C18.5567 3.23891 18.761 3.59225 18.8773 4.41214C18.9976 5.25971 19 6.40829 19 8.08276H21ZM12.378 1.25654C11.6052 1.38534 10.934 1.49537 10.402 1.65375C9.84322 1.8201 9.32093 2.07116 8.91095 2.55513L10.437 3.84788C10.501 3.77236 10.6147 3.67716 10.9726 3.57061C11.3573 3.45609 11.8833 3.36657 12.7068 3.22933L12.378 1.25654ZM10.2 6.18851C10.2 5.35366 10.2018 4.82008 10.2516 4.42183C10.2978 4.05128 10.373 3.9234 10.437 3.84788L8.91095 2.55513C8.50097 3.0391 8.33919 3.59555 8.26696 4.17405C8.19819 4.72484 8.20001 5.40502 8.20001 6.18851H10.2Z"
    fill="currentColor" />
</svg>